<?xml version="1.0" standalone="no"?>
<!DOCTYPE svg PUBLIC "-//W3C//DTD SVG 20010904//EN"
 "http://www.w3.org/TR/2001/REC-SVG-20010904/DTD/svg10.dtd">
<svg version="1.0" xmlns="http://www.w3.org/2000/svg"
 width="300.000000pt" height="300.000000pt" viewBox="0 0 300.000000 300.000000"
 preserveAspectRatio="xMidYMid meet">
<metadata>
Created by potrace 1.14, written by Peter Selinger 2001-2017
</metadata>
<g transform="translate(0.000000,300.000000) scale(0.100000,-0.100000)"
fill="#000000" stroke="none">
<path d="M1187 2559 c7 -7 15 -10 18 -7 3 3 -2 9 -12 12 -14 6 -15 5 -6 -5z"/>
<path d="M1870 2496 c0 -2 8 -10 18 -17 15 -13 16 -12 3 4 -13 16 -21 21 -21
13z"/>
<path d="M2030 2481 c0 -6 4 -13 10 -16 6 -3 7 1 4 9 -7 18 -14 21 -14 7z"/>
<path d="M144 2402 c4 -3 14 -7 22 -8 9 -1 13 0 10 4 -4 3 -14 7 -22 8 -9 1
-13 0 -10 -4z"/>
<path d="M626 2398 c3 -5 10 -6 15 -3 13 9 11 12 -6 12 -8 0 -12 -4 -9 -9z"/>
<path d="M2066 2322 c-2 -4 4 -8 14 -8 10 0 16 4 14 8 -3 4 -9 8 -14 8 -5 0
-11 -4 -14 -8z"/>
<path d="M2000 2223 c-14 -10 -33 -27 -43 -38 -28 -31 -72 -133 -87 -200 -7
-33 -16 -76 -21 -95 -10 -36 -22 -170 -23 -252 -1 -25 -5 -44 -9 -41 -5 3 -26
-13 -48 -36 -53 -54 -73 -65 -90 -45 -10 13 -9 36 6 131 20 125 16 148 -26
148 -13 0 -35 7 -47 17 -48 33 -143 -19 -205 -112 -10 -13 -17 -21 -17 -17 0
5 -15 -3 -32 -16 -40 -30 -82 -38 -105 -22 -15 11 -16 15 -3 31 9 10 10 15 3
10 -10 -5 -12 10 -8 66 4 70 3 74 -18 75 -44 2 -74 -18 -110 -75 l-37 -57 0
61 c0 47 -4 63 -16 68 -24 9 -53 -11 -60 -42 -17 -75 -42 -145 -43 -121 -1 19
-17 42 -55 76 -65 60 -128 91 -179 89 -20 0 -37 2 -37 7 0 4 -8 3 -17 -2 -63
-33 -102 -49 -108 -43 -4 4 -5 3 -3 -3 1 -5 -7 -26 -19 -45 -23 -38 -44 -111
-38 -140 6 -29 -81 -98 -110 -87 -13 6 -20 137 -7 137 4 0 7 10 8 23 0 12 3
39 6 61 7 42 -9 89 -31 94 -20 4 -81 -18 -81 -29 0 -6 -5 -7 -12 -3 -7 4 -8 3
-4 -4 7 -12 -30 -93 -59 -127 l-17 -20 7 20 c4 11 9 47 12 81 4 46 1 63 -10
72 -18 15 -66 6 -74 -14 -3 -8 -9 -11 -14 -8 -5 3 -6 -2 -3 -10 3 -9 3 -24 -1
-33 -5 -10 -9 -29 -10 -43 -1 -14 -3 -25 -4 -25 -1 0 -4 -31 -7 -70 -3 -38
-11 -73 -17 -77 -7 -4 -7 -8 -2 -8 6 0 11 -18 12 -40 2 -23 7 -50 13 -60 13
-24 52 -26 74 -4 9 8 20 12 26 9 5 -3 10 -1 10 4 0 6 -5 11 -10 11 -6 0 0 20
12 44 13 24 27 41 32 38 5 -3 6 0 2 6 -8 13 10 51 33 70 9 8 10 10 3 7 -12 -6
-12 -3 -2 16 7 13 14 25 15 27 2 2 2 -41 1 -95 -1 -79 2 -104 17 -126 29 -45
90 -34 176 31 24 18 36 22 39 13 6 -19 44 -52 72 -63 29 -11 100 -16 94 -6 -2
4 6 10 18 14 79 24 133 170 103 271 l-13 43 46 -33 c25 -17 59 -43 75 -57 16
-14 33 -24 37 -23 4 1 5 -38 2 -88 -4 -76 -2 -92 13 -109 19 -21 65 -28 65 -9
0 5 4 7 10 4 5 -3 7 0 4 8 -3 8 -1 18 5 22 6 3 11 12 11 19 0 8 8 31 17 52 9
22 18 44 19 51 3 18 26 87 32 97 3 5 11 -15 19 -45 8 -29 20 -57 29 -62 8 -4
12 -12 10 -16 -12 -19 83 -17 126 2 l37 17 -5 -25 c-10 -58 49 -135 105 -135
29 0 91 27 116 50 20 19 21 19 44 -15 17 -26 31 -35 52 -35 38 0 78 18 115 52
l31 29 12 -41 c10 -33 16 -40 37 -40 20 0 29 9 45 47 11 26 26 51 32 55 7 4 9
8 5 8 -11 0 45 88 88 138 20 24 38 41 41 38 2 -2 -6 -28 -19 -58 -52 -121 2
-251 94 -223 45 14 113 49 121 62 4 7 14 13 21 13 9 0 12 16 11 55 -1 31 -5
58 -8 61 -3 3 -24 -12 -47 -35 -42 -42 -80 -59 -100 -46 -15 9 -6 79 21 162
11 34 19 79 17 100 -3 35 -6 38 -36 41 -31 3 -41 -4 -108 -74 -83 -86 -83 -82
-1 81 90 179 120 295 97 366 -13 39 -14 39 -64 39 -33 0 -61 -6 -76 -17z m66
-77 c3 -8 -2 -45 -12 -83 -20 -79 -112 -303 -125 -303 -24 0 26 223 72 318 39
80 54 96 65 68z m-1338 -436 c14 -26 10 -128 -5 -139 -4 -3 -9 -15 -11 -26 -5
-31 -39 -55 -65 -46 -12 5 -21 16 -21 25 1 9 -2 13 -7 10 -5 -3 -9 -2 -10 3
-8 63 7 135 38 178 23 32 62 30 81 -5z m868 7 c-3 -12 -10 -47 -17 -77 -24
-114 -73 -176 -105 -132 -16 22 -10 91 11 133 38 76 126 136 111 76z"/>
<path d="M2383 2209 c-25 -9 -42 -37 -42 -65 1 -10 -2 -60 -6 -111 -6 -83 -5
-92 12 -101 38 -19 64 4 82 73 21 82 45 150 56 157 6 5 5 8 -2 8 -7 0 -13 6
-13 14 0 27 -46 41 -87 25z"/>
<path d="M1675 2009 c-4 -6 -5 -12 -2 -15 2 -3 7 2 10 11 7 17 1 20 -8 4z"/>
<path d="M149 1883 c-13 -16 -12 -17 4 -4 9 7 17 15 17 17 0 8 -8 3 -21 -13z"/>
<path d="M2754 1889 c-3 -6 -2 -15 3 -20 5 -5 9 -1 9 11 0 23 -2 24 -12 9z"/>
<path d="M2832 1818 c-12 -6 -46 -43 -74 -82 -28 -39 -83 -101 -121 -138 -73
-71 -83 -100 -37 -107 29 -4 42 -20 34 -41 -3 -8 -2 -11 2 -7 4 4 18 -3 32
-15 13 -13 25 -22 28 -20 2 1 18 2 35 2 21 0 28 -4 23 -12 -6 -10 -4 -10 7 -2
8 6 30 11 51 10 20 0 34 2 32 5 -2 4 13 10 33 14 20 3 56 16 80 27 42 20 43
21 43 69 0 57 -9 60 -63 24 -20 -14 -37 -22 -38 -18 0 4 -2 22 -5 38 -2 17 -5
46 -7 66 -1 21 -5 35 -9 32 -15 -8 -8 46 7 61 9 9 22 28 30 43 13 24 12 29 -2
45 -18 20 -47 22 -81 6z m-41 -205 c0 -5 2 -27 5 -50 4 -31 2 -43 -7 -43 -7 0
-9 -3 -6 -7 11 -11 -14 -33 -37 -33 -11 1 -32 10 -45 21 l-24 20 48 49 c47 48
64 59 66 43z"/>
<path d="M434 1720 c0 -13 4 -16 10 -10 7 7 7 13 0 20 -6 6 -10 3 -10 -10z"/>
<path d="M1787 1639 c7 -7 15 -10 18 -7 3 3 -2 9 -12 12 -14 6 -15 5 -6 -5z"/>
<path d="M796 1442 c-3 -5 1 -9 9 -9 8 0 12 4 9 9 -3 4 -7 8 -9 8 -2 0 -6 -4
-9 -8z"/>
<path d="M1110 1436 c7 -7 13 -7 20 0 6 6 3 10 -10 10 -13 0 -16 -4 -10 -10z"/>
<path d="M2226 1398 c3 -5 10 -6 15 -3 13 9 11 12 -6 12 -8 0 -12 -4 -9 -9z"/>
<path d="M1180 1366 c0 -2 8 -10 18 -17 15 -13 16 -12 3 4 -13 16 -21 21 -21
13z"/>
<path d="M2560 1360 c-9 -6 -10 -10 -3 -10 6 0 15 5 18 10 8 12 4 12 -15 0z"/>
<path d="M581 1310 l-64 -5 -1 -130 c-1 -150 -7 -144 117 -135 70 5 72 6 73
32 1 15 -4 25 -10 22 -6 -2 -37 -5 -69 -7 l-58 -3 3 35 c3 30 7 35 31 36 15 1
27 -2 27 -7 0 -5 6 -6 13 -1 11 7 16 9 36 12 5 0 9 11 9 24 0 20 -5 22 -59 20
-58 -1 -58 -1 -57 28 1 29 1 29 64 29 64 0 78 7 68 33 -7 19 -41 23 -123 17z"/>
<path d="M179 1293 c-58 -36 -76 -111 -45 -181 18 -40 60 -72 93 -72 10 0 25
-6 32 -12 9 -9 12 -9 7 -1 -4 7 4 14 21 18 27 6 73 37 73 49 0 3 -9 10 -21 16
-16 9 -24 8 -39 -5 -39 -35 -128 -7 -117 37 3 11 1 15 -5 11 -18 -10 -1 67 18
89 10 10 24 16 31 14 7 -3 13 -1 13 4 0 12 52 -7 61 -22 9 -14 49 0 49 17 0 7
-12 23 -26 34 -33 26 -107 28 -145 4z"/>
<path d="M871 1218 c0 -51 -1 -95 -1 -98 -1 -3 -2 -23 -3 -45 -2 -40 -1 -41
27 -37 22 4 27 1 21 -8 -5 -8 -4 -11 3 -6 5 3 10 23 10 44 0 60 1 62 26 62 18
0 30 -11 48 -42 15 -27 32 -44 50 -49 37 -10 44 5 19 40 -12 16 -21 34 -21 40
0 6 -5 11 -11 11 -8 0 -8 5 1 15 7 8 16 13 19 10 4 -2 8 1 9 8 0 7 3 25 7 41
8 39 -10 81 -41 95 -14 6 -56 11 -94 11 l-69 0 0 -92z m123 38 c17 -1 21 -7
21 -36 0 -20 -5 -35 -12 -35 -6 0 -14 -3 -18 -6 -3 -4 -18 -4 -33 0 -22 6 -27
14 -28 44 -2 35 15 52 40 39 5 -3 18 -5 30 -6z"/>
<path d="M1311 1256 c-11 -30 -29 -74 -39 -98 -50 -114 -51 -118 -18 -118 19
0 28 8 37 35 12 33 16 35 59 35 43 0 47 -2 63 -35 11 -23 24 -35 37 -35 11 0
20 4 20 8 0 4 -18 57 -41 118 -22 60 -43 117 -46 127 -3 10 -15 17 -28 17 -19
0 -27 -10 -44 -54z m73 -93 c7 -21 4 -23 -28 -23 -41 0 -45 11 -20 68 l16 37
13 -30 c7 -16 16 -40 19 -52z"/>
<path d="M1634 1175 l0 -135 27 0 27 0 -2 84 c-1 47 0 83 3 81 3 -2 19 -28 35
-59 43 -82 50 -81 101 17 l20 38 3 -80 3 -81 29 0 29 0 -1 135 -1 135 -32 0
c-30 0 -34 -4 -66 -75 -19 -41 -36 -75 -39 -75 -3 0 -22 34 -43 75 -33 66 -40
75 -65 75 l-27 0 -1 -135z"/>
<path d="M2090 1285 c0 -36 -1 -39 -13 -54 -9 -11 -9 -13 0 -8 7 5 11 -4 11
-28 0 -23 -4 -33 -11 -29 -8 4 -7 2 1 -7 18 -20 15 -42 -5 -35 -17 6 -17 5 0
-8 20 -16 22 -32 5 -39 -10 -4 -10 -6 0 -6 6 -1 12 -8 12 -16 0 -9 9 -15 25
-15 27 0 27 -1 27 65 0 206 0 205 -27 205 -20 0 -25 -5 -25 -25z"/>
<path d="M2368 1291 c-14 -11 -29 -17 -32 -13 -4 4 -6 0 -4 -8 2 -8 -2 -14 -7
-13 -11 2 -12 -3 -17 -68 -3 -46 27 -113 58 -130 13 -7 24 -15 24 -18 0 -14
88 -3 115 15 43 27 47 37 24 56 -20 17 -22 17 -38 -3 -23 -28 -76 -28 -104 0
-28 28 -29 101 -2 131 23 26 79 26 104 1 17 -17 20 -17 40 -2 l22 17 -28 25
c-38 35 -117 40 -155 10z"/>
<path d="M2726 1289 c-18 -14 -26 -30 -26 -50 0 -48 16 -67 76 -86 56 -17 85
-45 62 -59 -19 -12 -76 -6 -102 11 -23 15 -25 15 -35 -4 -16 -30 -13 -40 14
-47 14 -3 25 -9 25 -13 0 -4 23 -6 52 -5 60 3 98 27 109 67 10 36 -28 82 -73
91 -46 9 -79 33 -71 52 3 9 13 14 24 11 11 -3 17 -1 13 4 -6 11 9 12 20 2 3
-4 12 -8 19 -9 7 -2 21 -5 32 -7 31 -7 30 38 -2 52 -40 18 -107 13 -137 -10z"/>
<path d="M2913 1085 c0 -8 4 -12 9 -9 5 3 6 10 3 15 -9 13 -12 11 -12 -6z"/>
<path d="M750 1016 c0 -2 8 -10 18 -17 15 -13 16 -12 3 4 -13 16 -21 21 -21
13z"/>
<path d="M2070 976 c0 -2 8 -10 18 -17 15 -13 16 -12 3 4 -13 16 -21 21 -21
13z"/>
<path d="M687 895 c-13 -30 -12 -154 1 -167 9 -9 12 -1 12 34 0 51 17 73 50
63 17 -5 20 -15 20 -56 0 -34 4 -49 13 -49 10 0 12 13 7 55 -3 30 -9 58 -13
62 -13 12 -49 14 -63 2 -10 -8 -13 -1 -16 33 -2 34 -5 39 -11 23z"/>
<path d="M2176 865 c1 -19 -2 -35 -7 -35 -5 0 -9 4 -9 8 0 12 -42 12 -57 1 -6
-6 -16 -9 -20 -6 -16 10 -11 -65 5 -91 19 -30 60 -37 78 -13 9 11 12 11 18 -5
6 -15 9 -16 16 -4 6 9 5 17 -3 22 -9 6 -9 12 1 29 8 11 9 18 3 14 -15 -9 -14
8 2 24 6 8 7 11 1 8 -7 -4 -11 5 -11 23 0 17 4 30 9 30 5 0 3 7 -6 15 -21 22
-24 19 -20 -20z m-7 -54 c11 -21 6 -50 -13 -69 -13 -13 -18 -13 -40 2 -28 18
-32 36 -16 65 12 23 58 24 69 2z"/>
<path d="M1020 886 c0 -2 8 -10 18 -17 15 -13 16 -12 3 4 -13 16 -21 21 -21
13z"/>
<path d="M1432 863 c2 -23 0 -27 -17 -25 -40 6 -60 3 -72 -14 -40 -55 21 -130
77 -94 9 6 17 5 21 -2 4 -6 6 28 6 75 -1 48 -6 87 -10 87 -5 0 -7 -12 -5 -27z
m0 -74 c8 -53 -47 -79 -76 -37 -21 30 -20 44 4 68 27 27 66 10 72 -31z"/>
<path d="M1875 852 c-16 -16 -2 -28 26 -24 20 3 34 0 40 -9 15 -23 11 -26 -35
-24 -25 0 -43 -3 -40 -7 3 -4 1 -16 -5 -25 -14 -27 23 -55 56 -42 20 7 28 6
38 -7 10 -14 12 -6 10 44 0 33 -6 67 -13 75 -13 15 -68 28 -77 19z m75 -93 c0
-5 -11 -14 -24 -21 -20 -8 -28 -7 -40 5 -15 14 -14 17 5 31 23 16 59 7 59 -15z"/>
<path d="M2327 829 c-21 -23 -26 -36 -21 -57 12 -50 70 -74 101 -40 19 21 14
23 -21 7 -20 -9 -29 -9 -41 1 -29 24 -17 37 31 35 29 -1 48 3 51 11 8 20 -15
51 -45 62 -25 8 -31 6 -55 -19z m71 -11 c21 -21 13 -28 -33 -28 -43 0 -45 1
-35 20 12 22 49 27 68 8z"/>
<path d="M918 843 c-31 -8 -19 -18 19 -18 28 0 38 -4 41 -18 3 -13 -2 -18 -15
-17 -38 4 -53 -1 -64 -22 -10 -18 -8 -24 10 -39 18 -15 27 -16 47 -7 20 10 27
9 35 -3 10 -17 11 -10 9 56 -2 60 -28 81 -82 68z m62 -76 c0 -18 -21 -37 -41
-37 -22 0 -31 13 -23 34 7 20 64 22 64 3z"/>
<path d="M1120 842 c0 -7 -5 -10 -11 -6 -8 4 -8 1 -2 -12 5 -11 8 -38 7 -61
-1 -24 2 -43 7 -43 5 0 10 6 10 13 3 28 6 63 7 76 1 8 8 11 18 7 9 -4 13 -2 8
5 -4 7 1 10 12 7 12 -2 20 -13 21 -28 4 -58 8 -80 15 -80 10 0 10 101 0 118
-9 13 -38 12 -61 -2 -8 -5 -16 -3 -22 5 -7 11 -9 11 -9 1z"/>
<path d="M1608 836 c-20 -11 -28 -11 -32 -3 -2 7 -5 -17 -5 -52 -1 -71 4 -78
11 -15 6 51 14 64 39 64 23 0 38 -33 33 -72 -1 -15 1 -30 7 -33 5 -4 9 13 9
39 0 35 5 48 22 60 30 21 41 8 49 -57 l6 -52 2 57 c1 46 -3 59 -17 67 -14 7
-25 6 -41 -5 -19 -14 -23 -14 -37 0 -18 19 -13 19 -46 2z"/>
<path d="M2754 606 c1 -8 5 -18 8 -22 4 -3 5 1 4 10 -1 8 -5 18 -8 22 -4 3 -5
-1 -4 -10z"/>
<path d="M155 601 c-3 -5 -2 -12 3 -15 5 -3 9 1 9 9 0 17 -3 19 -12 6z"/>
<path d="M2386 598 c3 -5 10 -6 15 -3 13 9 11 12 -6 12 -8 0 -12 -4 -9 -9z"/>
<path d="M784 322 c4 -3 14 -7 22 -8 9 -1 13 0 10 4 -4 3 -14 7 -22 8 -9 1
-13 0 -10 -4z"/>
<path d="M2396 282 c-3 -5 1 -9 9 -9 8 0 12 4 9 9 -3 4 -7 8 -9 8 -2 0 -6 -4
-9 -8z"/>
<path d="M2510 56 c0 -2 8 -10 18 -17 15 -13 16 -12 3 4 -13 16 -21 21 -21 13z"/>
<path d="M2260 46 c0 -2 8 -10 18 -17 15 -13 16 -12 3 4 -13 16 -21 21 -21 13z"/>
</g>
</svg>
